<svg viewBox="0 0 1440 288" xmlns="http://www.w3.org/2000/svg" xmlns:xlink="http://www.w3.org/1999/xlink"><title>watineDetail</title><defs><path id="a" d="M0 0h1440v330H0z"/></defs><g fill="none" fill-rule="evenodd"><mask id="b" fill="#fff"><use xlink:href="#a"/></mask><path d="M-61.612.302c15.47 0 32.486-1.547 47.956-1.547 6.961 0 13.15 1.547 13.15 5.414 0 2.32-6.962 5.414-12.376 6.187C-30.672 13.45-29.9 20.41-26.805 32.784c11.602 34.802 42.542 117.554 60.332 161.637 1.547 2.32 3.867 3.093 4.641.773 11.602-22.428 42.542-92.032 51.05-114.46 1.547-3.867 3.094-10.054 1.547-13.921-3.867-10.054-9.282-23.201-13.923-32.482C70.655 21.183 64.467 13.45 48.223 9.583c-6.961-2.32-10.829-3.867-10.829-6.96 0-3.094 3.094-4.641 11.603-4.641 15.47 0 36.354 2.32 53.37 2.32 23.979 0 34.808-1.547 50.278-1.547 8.508 0 11.602 1.547 11.602 4.64 0 2.32-5.414 5.414-11.602 6.961-17.79 3.867-21.658 7.734-13.15 31.709 9.282 23.975 48.73 130.701 58.786 153.13 2.32 4.64 3.867.773 3.867 0C212.203 173.54 244.69 96.2 254.745 67.585c6.188-17.787 10.83-31.708 10.83-37.122 0-6.96-1.548-14.694-22.432-19.335-10.055-3.866-13.15-5.413-13.15-8.507 0-3.093 5.415-4.64 10.83-4.64 13.149 0 27.845 2.32 40.221 2.32 8.508 0 28.62-2.32 39.448-2.32 6.961 0 10.829 1.547 10.829 4.64 0 3.094-2.32 4.64-13.923 8.507-14.696 3.867-23.978 13.921-34.033 34.803-13.923 28.615-37.128 82.751-60.333 136.888-13.15 31.709-26.298 64.19-35.58 90.486-4.641 11.6-8.509 14.694-10.83 14.694-3.093 0-6.187-3.094-9.281-13.92l-17.017-49.497c-16.243-45.63-32.487-87.392-48.73-128.382 0-3.093-1.547-4.64-3.867-.773l-48.73 108.273-27.846 68.831C18.057 282.586 13.416 288 9.55 288c-2.32 0-5.415-5.414-7.735-13.92l-21.658-65.738c-13.923-38.67-58.785-153.13-67.294-169.37-6.961-14.695-14.696-23.976-34.033-29.39C-127.36 8.037-132 5.717-132 3.397c0-4.64 5.414-6.187 13.15-6.187 11.602 0 33.26 3.093 57.238 3.093zm524.426-9.28c28.62 0 51.824 16.24 61.106 37.895 9.282 16.241 12.376 48.723 12.376 71.925 0 30.935-1.547 102.086-1.547 122.194 0 13.92 6.961 27.842 27.072 27.842 6.962 0 14.696-1.547 23.205-6.187 3.867-2.32 6.961.773 3.867 6.96-11.602 23.202-37.127 35.576-61.879 35.576-24.752 0-40.995-18.562-47.183-35.576-.773-1.547-3.094-2.32-3.867-.773-23.205 21.654-46.41 34.802-75.802 34.802-30.94 0-61.88-26.295-61.88-67.284 0-24.749 19.338-40.99 27.846-44.856 19.337-10.054 87.404-30.162 105.195-36.35 6.188-2.32 9.282-8.507 10.055-11.6.774-9.28 1.547-26.295 1.547-36.349 0-31.709-6.188-51.817-18.564-61.87-10.055-7.734-22.43-12.375-31.713-12.375-11.602 0-20.11 2.32-30.166 9.281-4.64 3.867-9.282 9.28-10.829 17.014-.773 3.094 0 10.828 0 16.241 0 2.32-2.32 5.414-3.867 6.96-7.735 4.641-31.713 17.015-39.448 18.562-3.094.773-6.962-3.867-6.962-7.734 0-6.187 6.188-14.694 15.47-25.521 17.017-19.335 40.222-34.03 58.785-44.083 17.79-9.28 34.807-14.694 47.183-14.694zM437.29 254.745c12.376 0 23.978-3.867 31.713-11.601 3.094-3.094 6.962-10.054 8.509-17.788 2.32-12.374 3.867-44.083 3.867-74.244 0-.774-1.547-5.414-3.867-4.64-9.282 2.32-49.504 16.24-65.747 24.747-10.055 5.414-20.11 17.788-20.11 39.443 0 26.295 22.43 44.083 45.635 44.083zm274.59 30.161c-31.714 0-56.465-10.827-70.388-35.575-6.188-10.054-8.509-26.295-8.509-44.856V45.158c0-8.507-.773-13.147-4.64-14.694-3.095-1.547-10.83-3.867-17.017-5.414-6.188-1.546-10.056-3.867-10.056-6.96 0-1.547 1.547-3.867 10.056-8.507 19.337-6.96 46.409-28.615 66.52-52.59 7.735-9.28 13.15-6.96 13.15-3.094-.774 6.187-1.548 30.936-1.548 40.216 0 2.32.774 6.96 4.641 6.96 13.923-.773 75.029-2.32 89.725-2.32 1.547 0 5.414 5.414 5.414 11.601 0 13.921-4.64 18.561-7.734 18.561-26.3 0-60.333-.773-81.217-.773-9.282 0-10.829 3.093-10.829 6.96 0 14.695 0 136.889.774 160.09 1.547 22.428 3.094 32.482 8.508 39.443 11.602 14.694 27.846 20.108 45.636 20.108 19.337 0 32.487-6.187 40.221-10.828 6.188-4.64 8.509-3.093 8.509 0 0 4.64-6.188 11.601-17.017 20.108-17.79 13.921-41.768 20.881-64.2 20.881zM823.26 20.41c0-2.32 2.32-4.64 9.282-6.187 24.752-6.187 41.768-13.147 61.106-20.881 6.188-3.094 9.282-5.414 11.602-5.414 2.32 0 3.867 2.32 3.094 10.827-1.547 15.468-1.547 61.098-1.547 106.727 0 69.604 0 128.381 1.547 140.755 1.547 15.468 8.508 20.108 20.884 23.202 8.509 1.547 11.603 3.093 11.603 6.187 0 3.867-6.188 5.414-12.376 5.414-8.509 0-34.034-3.094-58.012-3.094-27.072 0-41.769 1.547-50.277 1.547-5.414 0-10.829-1.547-10.829-4.64 0-3.094 3.868-5.414 14.696-7.734 17.017-3.867 24.752-11.601 24.752-41.763.774-23.201 2.32-162.41 2.32-170.144 0-11.6-.773-16.24-21.657-28.615-3.868-1.547-6.188-4.64-6.188-6.187zM885.141-142c17.79 0 28.618 16.241 28.618 30.162 0 23.201-19.337 32.482-30.94 32.482-14.696 0-27.845-13.921-27.845-30.162 0-21.655 17.017-32.482 30.166-32.482zM1166.69-8.978c31.713 0 50.277 14.694 61.106 27.068 17.016 17.788 23.978 55.683 24.751 99.766 0 41.763.774 48.723.774 88.166.773 51.816 3.094 57.23 23.978 61.87 6.961 2.32 11.602 4.64 11.602 7.734 0 4.64-5.414 5.414-13.149 5.414-12.376 0-35.58-3.094-51.824-3.094-30.94 0-42.542 3.094-52.597 3.094-6.188 0-12.376-1.547-12.376-4.64 0-3.094 4.64-6.188 13.923-8.508 19.337-4.64 22.431-10.054 22.431-31.709V129.457c0-61.87-5.414-80.432-23.978-95.126-11.603-9.28-26.299-13.92-42.542-13.92-19.337 0-37.901 7.733-55.691 22.427-4.641 4.64-8.509 15.468-8.509 21.655 0 10.827.774 49.496.774 93.579.773 50.27 2.32 74.245 3.867 85.072 2.32 17.788 10.829 21.655 23.978 24.748 9.282 3.094 12.376 4.64 12.376 8.507 0 4.64-7.735 4.64-14.696 4.64-6.962 0-46.41-3.093-63.426-3.093-10.83 0-27.846 1.547-44.863 1.547-8.508 0-13.923-1.547-13.923-5.414s6.188-6.187 15.47-7.734c20.11-3.867 21.658-9.28 22.431-25.521 1.547-53.364 2.32-122.968 2.32-187.932 0-7.734-1.546-16.24-19.336-25.521-5.415-3.867-6.188-5.414-6.188-7.734 0-2.32 3.094-3.867 10.828-6.187 19.338-4.64 53.371-19.335 65.747-27.069 2.32-1.546 6.188 1.547 6.188 6.187-.773 8.508-2.32 28.615-1.547 40.216 0 1.547 2.32 3.094 3.868 1.547 18.563-13.92 36.354-26.295 51.823-33.255 16.244-7.734 32.487-10.054 46.41-10.054zm301.661 0c47.957 0 95.14 34.028 95.14 80.431 0 4.64-4.641 8.507-7.735 8.507-6.962 0-106.742-2.32-125.306-2.32h-37.9c-1.548 0-6.189 4.64-6.962 6.96-3.868 7.735-6.188 20.882-6.188 39.443 0 39.443 15.47 70.378 35.58 92.806 20.111 23.201 51.05 31.709 74.255 31.709 31.714 0 54.918-6.96 73.482-24.749 6.188-5.413 9.282-3.867 9.282-.773 0 3.093-2.32 6.96-6.961 12.374-29.393 33.255-63.427 51.043-109.836 51.043-37.128 0-68.84-14.694-92.045-39.442-23.979-24.748-37.128-61.87-37.128-103.633 0-37.123 13.15-82.752 46.41-114.46 20.884-19.335 55.69-37.896 95.912-37.896zm-7.735 10.827c-18.563 0-36.354 11.6-52.597 27.842-9.282 11.6-16.243 27.841-16.243 33.255 0 1.547 1.547 3.867 3.094 3.867h93.592c17.79 0 19.337-9.28 19.337-16.241 0-10.827-2.32-23.975-10.829-34.029-6.961-6.96-19.337-14.694-36.354-14.694z" fill="#F0F2F2" mask="url(#b)"/></g></svg>